<svg xmlns="http://www.w3.org/2000/svg" xmlns:xlink="http://www.w3.org/1999/xlink" width="500" zoomAndPan="magnify" viewBox="0 0 375 374.999991" height="500" preserveAspectRatio="xMidYMid meet" version="1.2"><defs><clipPath id="db5f3fd429"><path d="M 205.023438 17.28125 L 354.4375 17.28125 L 354.4375 351.375 L 205.023438 351.375 Z M 205.023438 17.28125 "/></clipPath><clipPath id="9d4becd15b"><path d="M 217.835938 38.207031 L 226.882812 38.207031 L 226.882812 330.449219 L 217.835938 330.449219 Z M 217.835938 38.207031 "/></clipPath></defs><g id="35ef5699de"><rect x="0" width="375" y="0" height="374.999991" style="fill:#ffffff;fill-opacity:1;stroke:none;"/><rect x="0" width="375" y="0" height="374.999991" style="fill:#000000;fill-opacity:1;stroke:none;"/><g style="fill:#ffffff;fill-opacity:1;"><g transform="translate(60.766054, 302.295774)"><path style="stroke:none" d="M 219.234375 0 L 171.734375 0 L 154.53125 -52.65625 L 67.03125 -52.65625 L 49.84375 0 L 3.4375 0 L 82.34375 -228.453125 L 140.3125 -228.453125 Z M 108.59375 -180.796875 L 79.21875 -90.625 L 142.03125 -90.625 L 112.5 -180.796875 Z M 108.59375 -180.796875 "/></g></g><g clip-rule="nonzero" clip-path="url(#db5f3fd429)"><path style=" stroke:none;fill-rule:nonzero;fill:#000000;fill-opacity:1;" d="M 205.023438 17.28125 L 354.4375 17.28125 L 354.4375 351.125 L 205.023438 351.125 Z M 205.023438 17.28125 "/></g><g clip-rule="nonzero" clip-path="url(#9d4becd15b)"><path style=" stroke:none;fill-rule:nonzero;fill:#ffffff;fill-opacity:1;" d="M 217.835938 38.207031 L 226.882812 38.207031 L 226.882812 330.453125 L 217.835938 330.453125 Z M 217.835938 38.207031 "/></g><g style="fill:#ffffff;fill-opacity:1;"><g transform="translate(210.451279, 302.295774)"><path style="stroke:none" d="M 74.84375 0 L 29.6875 0 L 29.6875 -228.453125 L 74.84375 -228.453125 Z M 74.84375 0 "/></g></g></g></svg>